<?xml version="1.0" standalone="no"?>
<!DOCTYPE svg PUBLIC "-//W3C//DTD SVG 20010904//EN"
 "http://www.w3.org/TR/2001/REC-SVG-20010904/DTD/svg10.dtd">
<svg version="1.0" xmlns="http://www.w3.org/2000/svg"
 width="256.000000pt" height="256.000000pt" viewBox="0 0 256.000000 256.000000"
 preserveAspectRatio="xMidYMid meet">
<metadata>
Created by potrace 1.14, written by Peter Selinger 2001-2017
</metadata>
<g transform="translate(0.000000,256.000000) scale(0.100000,-0.100000)"
fill="#000000" stroke="none">
<path d="M1067 2400 c-84 -14 -189 -50 -287 -98 -52 -25 -96 -49 -98 -54 -2
-4 -8 -8 -13 -8 -6 0 -22 -11 -37 -25 -15 -14 -31 -25 -37 -25 -6 0 -16 -9
-23 -21 -7 -12 -15 -19 -18 -16 -15 14 -270 -285 -259 -303 3 -5 0 -12 -6 -16
-6 -4 -27 -39 -45 -79 -138 -300 -134 -672 11 -969 44 -89 65 -126 76 -136 3
-3 22 -27 42 -55 46 -61 174 -194 181 -188 2 3 11 -4 18 -16 7 -12 16 -21 21
-21 4 0 31 -17 60 -38 236 -174 613 -235 935 -151 74 20 273 106 280 121 2 5
10 8 18 8 8 0 14 5 14 11 0 5 4 8 9 5 5 -3 12 1 15 10 4 9 9 14 12 11 3 -3 14
2 24 11 48 45 79 72 82 72 6 0 113 104 110 107 -1 2 19 30 44 62 25 33 52 70
59 83 60 112 74 141 69 149 -3 5 -1 9 5 9 6 0 19 29 30 64 51 164 69 342 52
501 -11 109 -46 258 -61 263 -5 2 -7 9 -4 15 6 17 -76 184 -110 225 -15 17
-24 32 -19 32 4 0 0 5 -9 11 -10 5 -18 15 -18 21 0 5 -11 19 -26 30 -14 11
-23 22 -20 25 2 3 -23 30 -56 61 -33 32 -70 66 -82 77 -11 12 -25 22 -31 24
-10 3 -56 36 -78 57 -22 19 -186 94 -263 119 -42 14 -104 29 -138 35 -71 12
-359 11 -429 0z"/>
</g>
</svg>
